<svg width="48" height="48" viewBox="0 0 48 48" fill="none" xmlns="http://www.w3.org/2000/svg">
<path fill-rule="evenodd" clip-rule="evenodd" d="M32.1198 21.8801C32.6816 22.4426 32.9971 23.2051 32.9971 24.0001C32.9971 24.7951 32.6816 25.5576 32.1198 26.1201L20.8078 37.4361C20.245 37.9986 19.4818 38.3145 18.6861 38.3143C17.8904 38.3141 17.1273 37.9979 16.5648 37.4351C16.0023 36.8723 15.6863 36.1091 15.6865 35.3134C15.6867 34.5176 16.003 33.7546 16.5658 33.1921L25.7578 24.0001L16.5658 14.8081C16.019 14.2425 15.7163 13.4849 15.7227 12.6983C15.7292 11.9117 16.0444 11.1591 16.6003 10.6026C17.1563 10.0461 17.9086 9.73023 18.6952 9.72303C19.4818 9.71582 20.2397 10.0179 20.8058 10.5641L32.1218 21.8781L32.1198 21.8801Z" fill="black"/>
</svg>
