<svg width="51" height="51" viewBox="0 0 51 51" fill="none" xmlns="http://www.w3.org/2000/svg">
<path fill-rule="evenodd" clip-rule="evenodd" d="M16.5784 22.8416C15.9919 23.4289 15.6624 24.2249 15.6624 25.0548C15.6624 25.8848 15.9919 26.6808 16.5784 27.268L28.3875 39.0813C28.9751 39.6686 29.7718 39.9984 30.6025 39.9982C31.4332 39.998 32.2298 39.6678 32.817 39.0803C33.4043 38.4928 33.7341 37.696 33.7339 36.8653C33.7337 36.0347 33.4035 35.2381 32.816 34.6508L23.22 25.0548L32.816 15.4588C33.3868 14.8684 33.7028 14.0774 33.6961 13.2563C33.6893 12.4351 33.3603 11.6494 32.7799 11.0685C32.1995 10.4875 31.4142 10.1578 30.593 10.1503C29.7718 10.1428 28.9806 10.4581 28.3896 11.0283L16.5763 22.8396L16.5784 22.8416Z" fill="white"/>
</svg>
