<svg width="51" height="51" viewBox="0 0 51 51" fill="none" xmlns="http://www.w3.org/2000/svg">
<path fill-rule="evenodd" clip-rule="evenodd" d="M33.5315 22.8416C34.118 23.4289 34.4474 24.2249 34.4474 25.0548C34.4474 25.8848 34.118 26.6808 33.5315 27.268L21.7223 39.0813C21.1348 39.6686 20.338 39.9984 19.5074 39.9982C18.6767 39.998 17.8801 39.6678 17.2928 39.0803C16.7056 38.4928 16.3758 37.696 16.376 36.8653C16.3762 36.0347 16.7064 35.2381 17.2939 34.6508L26.8899 25.0548L17.2939 15.4588C16.7231 14.8684 16.407 14.0774 16.4138 13.2563C16.4205 12.4351 16.7495 11.6494 17.3299 11.0685C17.9103 10.4875 18.6957 10.1578 19.5169 10.1503C20.338 10.1428 21.1293 10.4581 21.7202 11.0283L33.5336 22.8396L33.5315 22.8416Z" fill="white"/>
</svg>
