<svg width="48" height="48" viewBox="0 0 48 48" fill="none" xmlns="http://www.w3.org/2000/svg">
<path d="M27.9998 24V39.76C28.0798 40.36 27.8798 41 27.4198 41.42C27.2347 41.6054 27.015 41.7525 26.773 41.8529C26.5311 41.9532 26.2717 42.0049 26.0098 42.0049C25.7478 42.0049 25.4885 41.9532 25.2465 41.8529C25.0046 41.7525 24.7848 41.6054 24.5998 41.42L20.5798 37.4C20.3618 37.1867 20.196 36.9259 20.0954 36.6379C19.9948 36.35 19.9621 36.0427 19.9998 35.74V24H19.9398L8.41977 9.24C8.09499 8.82306 7.94844 8.29452 8.01215 7.76986C8.07586 7.2452 8.34464 6.76709 8.75977 6.44C9.13977 6.16 9.55977 6 9.99977 6H37.9998C38.4398 6 38.8598 6.16 39.2398 6.44C39.6549 6.76709 39.9237 7.2452 39.9874 7.76986C40.0511 8.29452 39.9046 8.82306 39.5798 9.24L28.0598 24H27.9998Z" fill="black"/>
</svg>
