<svg width="87" height="87" viewBox="0 0 87 87" fill="none" xmlns="http://www.w3.org/2000/svg">
<path d="M79.75 30.8126L21.75 74.3126V57.2896M7.25 30.8126L65.25 74.3126V57.2896M71.224 19.7092L68.8351 15.9283C67.5156 13.8367 66.8559 12.7891 65.9895 12.6948C65.1268 12.597 64.1589 13.5902 62.2268 15.5767C55.9845 21.993 49.7423 21.0432 43.5 32.5816C37.2577 21.0432 31.0155 21.993 24.7733 15.5767C22.8411 13.5902 21.8733 12.597 21.0105 12.6948C20.1441 12.7891 19.4844 13.8367 18.1649 15.9283L15.7796 19.7092C14.8553 21.1664 14.3949 21.8987 14.5218 22.6672C14.645 23.4357 15.3084 23.9613 16.6388 25.0126L39.0485 42.7678C41.1909 44.4643 42.2639 45.3126 43.5 45.3126C44.7361 45.3126 45.8091 44.4643 47.9515 42.7678L70.3612 25.0126C71.6916 23.9613 72.355 23.4357 72.4782 22.6672C72.6051 21.8987 72.1448 21.1664 71.224 19.7092Z" stroke="black" stroke-width="3" stroke-linecap="round" stroke-linejoin="round"/>
</svg>
