<svg width="48" height="48" viewBox="0 0 48 48" fill="none" xmlns="http://www.w3.org/2000/svg">
<path d="M44 16.9999L12 40.9999V31.6079M4 16.9999L36 40.9999V31.6079M39.296 10.8739L37.978 8.78788C37.25 7.63388 36.886 7.05588 36.408 7.00388C35.932 6.94988 35.398 7.49788 34.332 8.59388C30.888 12.1339 27.444 11.6099 24 17.9759C20.556 11.6099 17.112 12.1339 13.668 8.59388C12.602 7.49788 12.068 6.94988 11.592 7.00388C11.114 7.05588 10.75 7.63388 10.022 8.78788L8.706 10.8739C8.196 11.6779 7.942 12.0819 8.012 12.5059C8.08 12.9299 8.446 13.2199 9.18 13.7999L21.544 23.5959C22.726 24.5319 23.318 24.9999 24 24.9999C24.682 24.9999 25.274 24.5319 26.456 23.5959L38.82 13.7999C39.554 13.2199 39.92 12.9299 39.988 12.5059C40.058 12.0819 39.804 11.6779 39.296 10.8739Z" stroke="white" stroke-width="3" stroke-linecap="round" stroke-linejoin="round"/>
</svg>
