<svg width="48" height="48" viewBox="0 0 48 48" fill="none" xmlns="http://www.w3.org/2000/svg">
<path d="M31.0001 18.116L31.8421 13.806C32.8321 8.732 29.0461 4 24.0001 4C18.9541 4 15.1681 8.732 16.1581 13.806L16.9981 18.116C17.6681 21.536 20.6001 24 24.0001 24C27.4041 24 30.3341 21.538 31.0001 18.116Z" stroke="white" stroke-width="3" stroke-linecap="round"/>
<path d="M21.5001 23C21.5001 22.6022 21.342 22.2206 21.0607 21.9393C20.7794 21.658 20.3979 21.5 20.0001 21.5C19.6022 21.5 19.2207 21.658 18.9394 21.9393C18.6581 22.2206 18.5001 22.6022 18.5001 23H21.5001ZM29.5001 23C29.5001 22.6022 29.342 22.2206 29.0607 21.9393C28.7794 21.658 28.3979 21.5 28.0001 21.5C27.6022 21.5 27.2207 21.658 26.9394 21.9393C26.6581 22.2206 26.5001 22.6022 26.5001 23H29.5001ZM18.5001 23V25.564H21.5001V23H18.5001ZM26.5001 23V25.564H29.5001V23H26.5001ZM24.1221 30.496L24.0001 30.5V33.5L24.2401 33.496L24.1221 30.496ZM23.7621 33.496L24.0001 33.5V30.5L23.8781 30.496L23.7621 33.496ZM26.5001 25.564C26.5001 26.594 26.4881 27.094 26.3521 27.552C26.2341 27.952 25.9821 28.428 25.2421 29.196L27.4061 31.276C28.3421 30.302 28.9261 29.42 29.2281 28.406C29.5121 27.452 29.5001 26.486 29.5001 25.564H26.5001ZM24.2401 33.496C24.3161 33.492 24.5881 33.488 24.9041 33.376C25.1756 33.2786 25.4291 33.1366 25.6541 32.956C26.0461 32.656 26.5781 32.136 27.4061 31.276L25.2421 29.196C24.3941 30.08 24.0101 30.436 23.8281 30.576C23.7481 30.636 23.7901 30.588 23.9181 30.544C24.0661 30.494 24.2021 30.492 24.1221 30.496L24.2401 33.496ZM18.5001 25.564C18.5001 26.484 18.4881 27.452 18.7721 28.404C19.0721 29.42 19.6581 30.304 20.5961 31.276L22.7561 29.196C22.0161 28.428 21.7661 27.95 21.6481 27.552C21.5121 27.094 21.5001 26.594 21.5001 25.564H18.5001ZM23.8781 30.496C23.7981 30.492 23.9341 30.494 24.0821 30.544C24.2101 30.588 24.2521 30.636 24.1721 30.576C23.9901 30.436 23.6041 30.08 22.7561 29.196L20.5941 31.276C21.4221 32.136 21.9541 32.656 22.3461 32.956C22.5541 33.116 22.7981 33.276 23.0961 33.376C23.4141 33.488 23.6841 33.492 23.7621 33.496L23.8781 30.496Z" fill="white"/>
<path d="M20 28C13.512 29.854 10.27 30.78 8.292 33.168C8.10061 33.3997 7.91975 33.64 7.75 33.888C6.234 36.096 6.028 38.916 6 44M28 28C34.488 29.854 37.73 30.78 39.708 33.168C39.9 33.4 40.0807 33.64 40.25 33.888C41.768 36.098 41.972 38.918 42 44M24 32V40" stroke="white" stroke-width="3" stroke-linecap="round"/>
<path d="M16 12H32" stroke="white" stroke-width="3" stroke-linecap="round" stroke-linejoin="round"/>
</svg>
