<svg width="83" height="83" viewBox="0 0 83 83" fill="none" xmlns="http://www.w3.org/2000/svg">
<path d="M53.5942 31.3202L55.0499 23.8688C56.7615 15.0965 50.216 6.91553 41.4922 6.91553C32.7683 6.91553 26.2228 15.0965 27.9344 23.8688L29.3867 31.3202C30.545 37.2329 35.614 41.4928 41.4922 41.4928C47.3772 41.4928 52.4428 37.2364 53.5942 31.3202Z" stroke="black" stroke-width="6" stroke-linecap="round"/>
<path d="M37.1701 39.764C37.1701 39.0762 36.8969 38.4166 36.4106 37.9302C35.9242 37.4439 35.2646 37.1707 34.5768 37.1707C33.889 37.1707 33.2294 37.4439 32.7431 37.9302C32.2567 38.4166 31.9835 39.0762 31.9835 39.764H37.1701ZM51.001 39.764C51.001 39.0762 50.7278 38.4166 50.2415 37.9302C49.7551 37.4439 49.0955 37.1707 48.4077 37.1707C47.72 37.1707 47.0603 37.4439 46.574 37.9302C46.0877 38.4166 45.8144 39.0762 45.8144 39.764H51.001ZM31.9835 39.764V44.1968H37.1701V39.764H31.9835ZM45.8144 39.764V44.1968H51.001V39.764H45.8144ZM41.7032 52.7235L41.4923 52.7304V57.917L41.9072 57.9101L41.7032 52.7235ZM41.0808 57.9101L41.4923 57.917V52.7304L41.2814 52.7235L41.0808 57.9101ZM45.8144 44.1968C45.8144 45.9775 45.7937 46.8419 45.5586 47.6337C45.3546 48.3253 44.9189 49.1482 43.6395 50.476L47.3808 54.072C48.999 52.3881 50.0087 50.8633 50.5308 49.1102C51.0218 47.4609 51.001 45.7908 51.001 44.1968H45.8144ZM41.9072 57.9101C42.0386 57.9032 42.5089 57.8963 43.0552 57.7027C43.5247 57.5342 43.9629 57.2888 44.3518 56.9765C45.0295 56.4579 45.9493 55.5589 47.3808 54.072L43.6395 50.476C42.1735 52.0043 41.5096 52.6198 41.1949 52.8618C41.0566 52.9656 41.1292 52.8826 41.3505 52.8065C41.6064 52.7201 41.8415 52.7166 41.7032 52.7235L41.9072 57.9101ZM31.9835 44.1968C31.9835 45.7873 31.9628 47.4609 32.4538 49.1067C32.9724 50.8633 33.9856 52.3916 35.6072 54.072L39.3416 50.476C38.0622 49.1482 37.63 48.3218 37.426 47.6337C37.1909 46.8419 37.1701 45.9775 37.1701 44.1968H31.9835ZM41.2814 52.7235C41.1431 52.7166 41.3782 52.7201 41.634 52.8065C41.8553 52.8826 41.928 52.9656 41.7896 52.8618C41.475 52.6198 40.8077 52.0043 39.3416 50.476L35.6038 54.072C37.0353 55.5589 37.955 56.4579 38.6327 56.9765C38.9923 57.2531 39.4142 57.5298 39.9294 57.7027C40.4792 57.8963 40.946 57.9032 41.0808 57.9101L41.2814 52.7235Z" fill="black"/>
<path d="M34.5772 48.4082C23.3603 51.6135 17.7553 53.2144 14.3356 57.343C14.0047 57.7436 13.692 58.159 13.3986 58.5878C10.7776 62.4051 10.4215 67.2805 10.373 76.07M48.4081 48.4082C59.6249 51.6135 65.2299 53.2144 68.6496 57.343C68.9816 57.7441 69.2939 58.159 69.5867 58.5878C72.2111 62.4086 72.5638 67.2839 72.6122 76.07M41.4926 55.3237V69.1546" stroke="black" stroke-width="6" stroke-linecap="round"/>
<path d="M27.6621 20.7463H55.3239" stroke="black" stroke-width="6" stroke-linecap="round" stroke-linejoin="round"/>
</svg>
