<svg width="48" height="48" viewBox="0 0 48 48" fill="none" xmlns="http://www.w3.org/2000/svg">
<path d="M18.5004 44L17.7004 37.6C17.2671 37.4333 16.8591 37.2333 16.4764 37C16.0937 36.7667 15.7184 36.5167 15.3504 36.25L9.40039 38.75L3.90039 29.25L9.05039 25.35C9.01706 25.1167 9.00039 24.892 9.00039 24.676V23.326C9.00039 23.1087 9.01706 22.8833 9.05039 22.65L3.90039 18.75L9.40039 9.25L15.3504 11.75C15.7171 11.4833 16.1004 11.2333 16.5004 11C16.9004 10.7667 17.3004 10.5667 17.7004 10.4L18.5004 4H29.5004L30.3004 10.4C30.7337 10.5667 31.1424 10.7667 31.5264 11C31.9104 11.2333 32.2851 11.4833 32.6504 11.75L38.6004 9.25L44.1004 18.75L38.9504 22.65C38.9837 22.8833 39.0004 23.1087 39.0004 23.326V24.674C39.0004 24.8913 38.9671 25.1167 38.9004 25.35L44.0504 29.25L38.5504 38.75L32.6504 36.25C32.2837 36.5167 31.9004 36.7667 31.5004 37C31.1004 37.2333 30.7004 37.4333 30.3004 37.6L29.5004 44H18.5004ZM24.1004 31C26.0337 31 27.6837 30.3167 29.0504 28.95C30.4171 27.5833 31.1004 25.9333 31.1004 24C31.1004 22.0667 30.4171 20.4167 29.0504 19.05C27.6837 17.6833 26.0337 17 24.1004 17C22.1337 17 20.4751 17.6833 19.1244 19.05C17.7737 20.4167 17.0991 22.0667 17.1004 24C17.1017 25.9333 17.7771 27.5833 19.1264 28.95C20.4757 30.3167 22.1337 31 24.1004 31Z" fill="white"/>
</svg>
